<mxfile host="app.diagrams.net" modified="2023-05-06T08:46:16.134Z" agent="Mozilla/5.0 (Windows NT 10.0; Win64; x64) AppleWebKit/537.36 (KHTML, like Gecko) Chrome/112.0.0.0 Safari/537.36" etag="uo7PLx6hkpOEknbwl16S" version="21.2.9" type="google">
  <diagram name="Страница 1" id="jiMFPikLFae624csRV89">
    <mxGraphModel grid="1" page="1" gridSize="10" guides="1" tooltips="1" connect="1" arrows="1" fold="1" pageScale="1" pageWidth="827" pageHeight="1169" math="0" shadow="0">
      <root>
        <mxCell id="0" />
        <mxCell id="1" parent="0" />
        <mxCell id="3PJ7R5lumfzHkcLI9QBZ-1" value="Chat" style="rounded=0;whiteSpace=wrap;html=1;" vertex="1" parent="1">
          <mxGeometry x="350" y="360" width="120" height="60" as="geometry" />
        </mxCell>
        <mxCell id="3PJ7R5lumfzHkcLI9QBZ-3" value="User" style="rounded=0;whiteSpace=wrap;html=1;" vertex="1" parent="1">
          <mxGeometry x="354" y="590" width="120" height="60" as="geometry" />
        </mxCell>
        <mxCell id="3PJ7R5lumfzHkcLI9QBZ-5" style="edgeStyle=orthogonalEdgeStyle;rounded=0;orthogonalLoop=1;jettySize=auto;html=1;entryX=0.468;entryY=-0.024;entryDx=0;entryDy=0;entryPerimeter=0;endArrow=doubleBlock;endFill=1;" edge="1" parent="1" source="3PJ7R5lumfzHkcLI9QBZ-4" target="3PJ7R5lumfzHkcLI9QBZ-3">
          <mxGeometry relative="1" as="geometry" />
        </mxCell>
        <mxCell id="3PJ7R5lumfzHkcLI9QBZ-6" style="edgeStyle=orthogonalEdgeStyle;rounded=0;orthogonalLoop=1;jettySize=auto;html=1;entryX=0.5;entryY=1;entryDx=0;entryDy=0;" edge="1" parent="1" source="3PJ7R5lumfzHkcLI9QBZ-4" target="3PJ7R5lumfzHkcLI9QBZ-1">
          <mxGeometry relative="1" as="geometry" />
        </mxCell>
        <mxCell id="3PJ7R5lumfzHkcLI9QBZ-11" style="edgeStyle=orthogonalEdgeStyle;rounded=0;orthogonalLoop=1;jettySize=auto;html=1;endArrow=doubleBlock;endFill=1;" edge="1" parent="1" source="3PJ7R5lumfzHkcLI9QBZ-4" target="3PJ7R5lumfzHkcLI9QBZ-1">
          <mxGeometry relative="1" as="geometry" />
        </mxCell>
        <mxCell id="3PJ7R5lumfzHkcLI9QBZ-4" value="includes" style="rhombus;whiteSpace=wrap;html=1;" vertex="1" parent="1">
          <mxGeometry x="370" y="460" width="80" height="80" as="geometry" />
        </mxCell>
        <mxCell id="3PJ7R5lumfzHkcLI9QBZ-7" value="Personal" style="ellipse;whiteSpace=wrap;html=1;" vertex="1" parent="1">
          <mxGeometry x="420" y="290" width="120" height="40" as="geometry" />
        </mxCell>
        <mxCell id="3PJ7R5lumfzHkcLI9QBZ-9" value="ID" style="ellipse;whiteSpace=wrap;html=1;" vertex="1" parent="1">
          <mxGeometry x="280" y="290" width="120" height="40" as="geometry" />
        </mxCell>
        <mxCell id="3PJ7R5lumfzHkcLI9QBZ-10" value="" style="endArrow=none;html=1;rounded=0;entryX=0.5;entryY=1;entryDx=0;entryDy=0;" edge="1" parent="1" source="3PJ7R5lumfzHkcLI9QBZ-1" target="3PJ7R5lumfzHkcLI9QBZ-7">
          <mxGeometry width="50" height="50" relative="1" as="geometry">
            <mxPoint x="410" y="560" as="sourcePoint" />
            <mxPoint x="460" y="510" as="targetPoint" />
          </mxGeometry>
        </mxCell>
        <mxCell id="3PJ7R5lumfzHkcLI9QBZ-12" value="" style="endArrow=none;html=1;rounded=0;" edge="1" parent="1" source="3PJ7R5lumfzHkcLI9QBZ-1" target="3PJ7R5lumfzHkcLI9QBZ-9">
          <mxGeometry width="50" height="50" relative="1" as="geometry">
            <mxPoint x="410" y="560" as="sourcePoint" />
            <mxPoint x="460" y="510" as="targetPoint" />
          </mxGeometry>
        </mxCell>
        <mxCell id="3PJ7R5lumfzHkcLI9QBZ-14" value="ID" style="ellipse;whiteSpace=wrap;html=1;" vertex="1" parent="1">
          <mxGeometry x="270" y="680" width="120" height="40" as="geometry" />
        </mxCell>
        <mxCell id="3PJ7R5lumfzHkcLI9QBZ-15" value="Password" style="ellipse;whiteSpace=wrap;html=1;" vertex="1" parent="1">
          <mxGeometry x="354" y="740" width="120" height="40" as="geometry" />
        </mxCell>
        <mxCell id="3PJ7R5lumfzHkcLI9QBZ-16" value="Username" style="ellipse;whiteSpace=wrap;html=1;" vertex="1" parent="1">
          <mxGeometry x="450" y="680" width="120" height="40" as="geometry" />
        </mxCell>
        <mxCell id="3PJ7R5lumfzHkcLI9QBZ-17" value="" style="endArrow=none;html=1;rounded=0;" edge="1" parent="1" source="3PJ7R5lumfzHkcLI9QBZ-3" target="3PJ7R5lumfzHkcLI9QBZ-14">
          <mxGeometry width="50" height="50" relative="1" as="geometry">
            <mxPoint x="410" y="640" as="sourcePoint" />
            <mxPoint x="460" y="590" as="targetPoint" />
          </mxGeometry>
        </mxCell>
        <mxCell id="3PJ7R5lumfzHkcLI9QBZ-18" value="" style="endArrow=none;html=1;rounded=0;exitX=0.5;exitY=1;exitDx=0;exitDy=0;exitPerimeter=0;" edge="1" parent="1" source="3PJ7R5lumfzHkcLI9QBZ-3" target="3PJ7R5lumfzHkcLI9QBZ-15">
          <mxGeometry width="50" height="50" relative="1" as="geometry">
            <mxPoint x="410" y="640" as="sourcePoint" />
            <mxPoint x="460" y="590" as="targetPoint" />
          </mxGeometry>
        </mxCell>
        <mxCell id="3PJ7R5lumfzHkcLI9QBZ-19" value="" style="endArrow=none;html=1;rounded=0;exitX=0.75;exitY=1;exitDx=0;exitDy=0;" edge="1" parent="1" source="3PJ7R5lumfzHkcLI9QBZ-3" target="3PJ7R5lumfzHkcLI9QBZ-16">
          <mxGeometry width="50" height="50" relative="1" as="geometry">
            <mxPoint x="410" y="640" as="sourcePoint" />
            <mxPoint x="460" y="590" as="targetPoint" />
          </mxGeometry>
        </mxCell>
        <mxCell id="3PJ7R5lumfzHkcLI9QBZ-20" value="GroupChatInfo" style="rounded=0;whiteSpace=wrap;html=1;" vertex="1" parent="1">
          <mxGeometry x="660" y="360" width="120" height="60" as="geometry" />
        </mxCell>
        <mxCell id="3PJ7R5lumfzHkcLI9QBZ-21" value="Name" style="ellipse;whiteSpace=wrap;html=1;" vertex="1" parent="1">
          <mxGeometry x="730" y="290" width="120" height="40" as="geometry" />
        </mxCell>
        <mxCell id="3PJ7R5lumfzHkcLI9QBZ-22" value="ID" style="ellipse;whiteSpace=wrap;html=1;" vertex="1" parent="1">
          <mxGeometry x="590" y="290" width="120" height="40" as="geometry" />
        </mxCell>
        <mxCell id="3PJ7R5lumfzHkcLI9QBZ-23" value="" style="endArrow=none;html=1;rounded=0;entryX=0.5;entryY=1;entryDx=0;entryDy=0;" edge="1" parent="1" source="3PJ7R5lumfzHkcLI9QBZ-20" target="3PJ7R5lumfzHkcLI9QBZ-21">
          <mxGeometry width="50" height="50" relative="1" as="geometry">
            <mxPoint x="720" y="560" as="sourcePoint" />
            <mxPoint x="770" y="510" as="targetPoint" />
          </mxGeometry>
        </mxCell>
        <mxCell id="3PJ7R5lumfzHkcLI9QBZ-24" value="" style="endArrow=none;html=1;rounded=0;" edge="1" parent="1" source="3PJ7R5lumfzHkcLI9QBZ-20" target="3PJ7R5lumfzHkcLI9QBZ-22">
          <mxGeometry width="50" height="50" relative="1" as="geometry">
            <mxPoint x="720" y="560" as="sourcePoint" />
            <mxPoint x="770" y="510" as="targetPoint" />
          </mxGeometry>
        </mxCell>
        <mxCell id="3PJ7R5lumfzHkcLI9QBZ-25" value="Owner ID" style="ellipse;whiteSpace=wrap;html=1;" vertex="1" parent="1">
          <mxGeometry x="740" y="220" width="120" height="40" as="geometry" />
        </mxCell>
        <mxCell id="3PJ7R5lumfzHkcLI9QBZ-26" value="Chat ID" style="ellipse;whiteSpace=wrap;html=1;" vertex="1" parent="1">
          <mxGeometry x="580" y="220" width="120" height="40" as="geometry" />
        </mxCell>
        <mxCell id="3PJ7R5lumfzHkcLI9QBZ-27" value="" style="endArrow=none;html=1;rounded=0;" edge="1" parent="1" source="3PJ7R5lumfzHkcLI9QBZ-20" target="3PJ7R5lumfzHkcLI9QBZ-26">
          <mxGeometry width="50" height="50" relative="1" as="geometry">
            <mxPoint x="690" y="470" as="sourcePoint" />
            <mxPoint x="740" y="420" as="targetPoint" />
          </mxGeometry>
        </mxCell>
        <mxCell id="3PJ7R5lumfzHkcLI9QBZ-28" value="" style="endArrow=none;html=1;rounded=0;" edge="1" parent="1" source="3PJ7R5lumfzHkcLI9QBZ-20" target="3PJ7R5lumfzHkcLI9QBZ-25">
          <mxGeometry width="50" height="50" relative="1" as="geometry">
            <mxPoint x="690" y="470" as="sourcePoint" />
            <mxPoint x="740" y="420" as="targetPoint" />
          </mxGeometry>
        </mxCell>
        <mxCell id="lq_0w_lqpPaoq404DFsg-3" style="edgeStyle=orthogonalEdgeStyle;rounded=0;orthogonalLoop=1;jettySize=auto;html=1;" edge="1" parent="1" source="lq_0w_lqpPaoq404DFsg-1" target="3PJ7R5lumfzHkcLI9QBZ-20">
          <mxGeometry relative="1" as="geometry" />
        </mxCell>
        <mxCell id="lq_0w_lqpPaoq404DFsg-4" style="edgeStyle=orthogonalEdgeStyle;rounded=0;orthogonalLoop=1;jettySize=auto;html=1;entryX=1;entryY=0.5;entryDx=0;entryDy=0;" edge="1" parent="1" source="lq_0w_lqpPaoq404DFsg-1" target="3PJ7R5lumfzHkcLI9QBZ-1">
          <mxGeometry relative="1" as="geometry" />
        </mxCell>
        <mxCell id="lq_0w_lqpPaoq404DFsg-1" value="includes" style="rhombus;whiteSpace=wrap;html=1;" vertex="1" parent="1">
          <mxGeometry x="530" y="350" width="80" height="80" as="geometry" />
        </mxCell>
        <mxCell id="lq_0w_lqpPaoq404DFsg-5" value="Message" style="rounded=0;whiteSpace=wrap;html=1;" vertex="1" parent="1">
          <mxGeometry x="50" y="360" width="120" height="60" as="geometry" />
        </mxCell>
        <mxCell id="lq_0w_lqpPaoq404DFsg-6" value="User ID" style="ellipse;whiteSpace=wrap;html=1;" vertex="1" parent="1">
          <mxGeometry x="120" y="290" width="120" height="40" as="geometry" />
        </mxCell>
        <mxCell id="lq_0w_lqpPaoq404DFsg-7" value="ID" style="ellipse;whiteSpace=wrap;html=1;" vertex="1" parent="1">
          <mxGeometry x="-20" y="290" width="120" height="40" as="geometry" />
        </mxCell>
        <mxCell id="lq_0w_lqpPaoq404DFsg-8" value="" style="endArrow=none;html=1;rounded=0;entryX=0.5;entryY=1;entryDx=0;entryDy=0;" edge="1" parent="1" source="lq_0w_lqpPaoq404DFsg-5" target="lq_0w_lqpPaoq404DFsg-6">
          <mxGeometry width="50" height="50" relative="1" as="geometry">
            <mxPoint x="110" y="560" as="sourcePoint" />
            <mxPoint x="160" y="510" as="targetPoint" />
          </mxGeometry>
        </mxCell>
        <mxCell id="lq_0w_lqpPaoq404DFsg-9" value="" style="endArrow=none;html=1;rounded=0;" edge="1" parent="1" source="lq_0w_lqpPaoq404DFsg-5" target="lq_0w_lqpPaoq404DFsg-7">
          <mxGeometry width="50" height="50" relative="1" as="geometry">
            <mxPoint x="110" y="560" as="sourcePoint" />
            <mxPoint x="160" y="510" as="targetPoint" />
          </mxGeometry>
        </mxCell>
        <mxCell id="lq_0w_lqpPaoq404DFsg-11" value="Chat ID" style="ellipse;whiteSpace=wrap;html=1;" vertex="1" parent="1">
          <mxGeometry x="-30" y="230" width="120" height="40" as="geometry" />
        </mxCell>
        <mxCell id="lq_0w_lqpPaoq404DFsg-12" value="" style="endArrow=none;html=1;rounded=0;" edge="1" parent="1" source="lq_0w_lqpPaoq404DFsg-5" target="lq_0w_lqpPaoq404DFsg-11">
          <mxGeometry width="50" height="50" relative="1" as="geometry">
            <mxPoint x="80" y="470" as="sourcePoint" />
            <mxPoint x="130" y="420" as="targetPoint" />
          </mxGeometry>
        </mxCell>
        <mxCell id="lq_0w_lqpPaoq404DFsg-16" style="edgeStyle=orthogonalEdgeStyle;rounded=0;orthogonalLoop=1;jettySize=auto;html=1;entryX=0;entryY=0.5;entryDx=0;entryDy=0;" edge="1" parent="1" source="lq_0w_lqpPaoq404DFsg-15" target="3PJ7R5lumfzHkcLI9QBZ-1">
          <mxGeometry relative="1" as="geometry" />
        </mxCell>
        <mxCell id="lq_0w_lqpPaoq404DFsg-17" style="edgeStyle=orthogonalEdgeStyle;rounded=0;orthogonalLoop=1;jettySize=auto;html=1;endArrow=doubleBlock;endFill=1;" edge="1" parent="1" source="lq_0w_lqpPaoq404DFsg-15" target="lq_0w_lqpPaoq404DFsg-5">
          <mxGeometry relative="1" as="geometry" />
        </mxCell>
        <mxCell id="lq_0w_lqpPaoq404DFsg-15" value="includes" style="rhombus;whiteSpace=wrap;html=1;" vertex="1" parent="1">
          <mxGeometry x="220" y="350" width="80" height="80" as="geometry" />
        </mxCell>
        <mxCell id="m8zrVRxtoHdMWbyv3WEk-1" value="User" style="rounded=0;whiteSpace=wrap;html=1;" vertex="1" parent="1">
          <mxGeometry x="674" y="590" width="120" height="60" as="geometry" />
        </mxCell>
        <mxCell id="m8zrVRxtoHdMWbyv3WEk-2" value="First Name" style="ellipse;whiteSpace=wrap;html=1;" vertex="1" parent="1">
          <mxGeometry x="590" y="680" width="120" height="40" as="geometry" />
        </mxCell>
        <mxCell id="m8zrVRxtoHdMWbyv3WEk-3" value="User" style="ellipse;whiteSpace=wrap;html=1;" vertex="1" parent="1">
          <mxGeometry x="610" y="780" width="120" height="40" as="geometry" />
        </mxCell>
        <mxCell id="m8zrVRxtoHdMWbyv3WEk-4" value="EMAIL" style="ellipse;whiteSpace=wrap;html=1;" vertex="1" parent="1">
          <mxGeometry x="770" y="680" width="120" height="40" as="geometry" />
        </mxCell>
        <mxCell id="m8zrVRxtoHdMWbyv3WEk-5" value="" style="endArrow=none;html=1;rounded=0;" edge="1" parent="1" source="m8zrVRxtoHdMWbyv3WEk-1" target="m8zrVRxtoHdMWbyv3WEk-2">
          <mxGeometry width="50" height="50" relative="1" as="geometry">
            <mxPoint x="730" y="640" as="sourcePoint" />
            <mxPoint x="780" y="590" as="targetPoint" />
          </mxGeometry>
        </mxCell>
        <mxCell id="m8zrVRxtoHdMWbyv3WEk-6" value="" style="endArrow=none;html=1;rounded=0;exitX=0.5;exitY=1;exitDx=0;exitDy=0;exitPerimeter=0;" edge="1" parent="1" source="m8zrVRxtoHdMWbyv3WEk-1" target="m8zrVRxtoHdMWbyv3WEk-3">
          <mxGeometry width="50" height="50" relative="1" as="geometry">
            <mxPoint x="730" y="640" as="sourcePoint" />
            <mxPoint x="780" y="590" as="targetPoint" />
          </mxGeometry>
        </mxCell>
        <mxCell id="m8zrVRxtoHdMWbyv3WEk-7" value="" style="endArrow=none;html=1;rounded=0;exitX=0.75;exitY=1;exitDx=0;exitDy=0;" edge="1" parent="1" source="m8zrVRxtoHdMWbyv3WEk-1" target="m8zrVRxtoHdMWbyv3WEk-4">
          <mxGeometry width="50" height="50" relative="1" as="geometry">
            <mxPoint x="730" y="640" as="sourcePoint" />
            <mxPoint x="780" y="590" as="targetPoint" />
          </mxGeometry>
        </mxCell>
        <mxCell id="m8zrVRxtoHdMWbyv3WEk-8" value="Last Name" style="ellipse;whiteSpace=wrap;html=1;" vertex="1" parent="1">
          <mxGeometry x="590" y="730" width="120" height="40" as="geometry" />
        </mxCell>
        <mxCell id="m8zrVRxtoHdMWbyv3WEk-9" value="Status" style="ellipse;whiteSpace=wrap;html=1;" vertex="1" parent="1">
          <mxGeometry x="770" y="730" width="120" height="40" as="geometry" />
        </mxCell>
        <mxCell id="m8zrVRxtoHdMWbyv3WEk-10" value="ID" style="ellipse;whiteSpace=wrap;html=1;" vertex="1" parent="1">
          <mxGeometry x="740" y="780" width="120" height="40" as="geometry" />
        </mxCell>
        <mxCell id="m8zrVRxtoHdMWbyv3WEk-11" value="" style="endArrow=none;html=1;rounded=0;entryX=0.399;entryY=0.033;entryDx=0;entryDy=0;entryPerimeter=0;exitX=0.536;exitY=0.998;exitDx=0;exitDy=0;exitPerimeter=0;" edge="1" parent="1" source="m8zrVRxtoHdMWbyv3WEk-1" target="m8zrVRxtoHdMWbyv3WEk-10">
          <mxGeometry width="50" height="50" relative="1" as="geometry">
            <mxPoint x="730" y="840" as="sourcePoint" />
            <mxPoint x="780" y="790" as="targetPoint" />
          </mxGeometry>
        </mxCell>
        <mxCell id="m8zrVRxtoHdMWbyv3WEk-12" value="" style="endArrow=none;html=1;rounded=0;" edge="1" parent="1" source="m8zrVRxtoHdMWbyv3WEk-1" target="m8zrVRxtoHdMWbyv3WEk-9">
          <mxGeometry width="50" height="50" relative="1" as="geometry">
            <mxPoint x="730" y="840" as="sourcePoint" />
            <mxPoint x="780" y="790" as="targetPoint" />
          </mxGeometry>
        </mxCell>
        <mxCell id="m8zrVRxtoHdMWbyv3WEk-13" value="" style="endArrow=none;html=1;rounded=0;entryX=0.425;entryY=0.998;entryDx=0;entryDy=0;entryPerimeter=0;" edge="1" parent="1" source="m8zrVRxtoHdMWbyv3WEk-8" target="m8zrVRxtoHdMWbyv3WEk-1">
          <mxGeometry width="50" height="50" relative="1" as="geometry">
            <mxPoint x="730" y="840" as="sourcePoint" />
            <mxPoint x="780" y="790" as="targetPoint" />
          </mxGeometry>
        </mxCell>
        <mxCell id="m8zrVRxtoHdMWbyv3WEk-14" value="includes" style="rhombus;whiteSpace=wrap;html=1;" vertex="1" parent="1">
          <mxGeometry x="530" y="580" width="80" height="80" as="geometry" />
        </mxCell>
        <mxCell id="m8zrVRxtoHdMWbyv3WEk-15" value="" style="endArrow=classic;html=1;rounded=0;entryX=0;entryY=0.5;entryDx=0;entryDy=0;" edge="1" parent="1" source="m8zrVRxtoHdMWbyv3WEk-14" target="m8zrVRxtoHdMWbyv3WEk-1">
          <mxGeometry width="50" height="50" relative="1" as="geometry">
            <mxPoint x="580" y="710" as="sourcePoint" />
            <mxPoint x="630" y="660" as="targetPoint" />
          </mxGeometry>
        </mxCell>
        <mxCell id="m8zrVRxtoHdMWbyv3WEk-16" value="" style="endArrow=classic;html=1;rounded=0;entryX=1;entryY=0.5;entryDx=0;entryDy=0;" edge="1" parent="1" source="m8zrVRxtoHdMWbyv3WEk-14" target="3PJ7R5lumfzHkcLI9QBZ-3">
          <mxGeometry width="50" height="50" relative="1" as="geometry">
            <mxPoint x="580" y="710" as="sourcePoint" />
            <mxPoint x="630" y="660" as="targetPoint" />
          </mxGeometry>
        </mxCell>
        <mxCell id="m8zrVRxtoHdMWbyv3WEk-17" value="Date" style="ellipse;whiteSpace=wrap;html=1;" vertex="1" parent="1">
          <mxGeometry x="120" y="230" width="120" height="40" as="geometry" />
        </mxCell>
        <mxCell id="m8zrVRxtoHdMWbyv3WEk-18" value="Message" style="ellipse;whiteSpace=wrap;html=1;" vertex="1" parent="1">
          <mxGeometry x="50" y="170" width="120" height="40" as="geometry" />
        </mxCell>
        <mxCell id="m8zrVRxtoHdMWbyv3WEk-19" value="" style="endArrow=none;html=1;rounded=0;entryX=0.423;entryY=0.967;entryDx=0;entryDy=0;entryPerimeter=0;" edge="1" parent="1" source="lq_0w_lqpPaoq404DFsg-5" target="m8zrVRxtoHdMWbyv3WEk-17">
          <mxGeometry width="50" height="50" relative="1" as="geometry">
            <mxPoint x="100" y="450" as="sourcePoint" />
            <mxPoint x="150" y="400" as="targetPoint" />
          </mxGeometry>
        </mxCell>
        <mxCell id="m8zrVRxtoHdMWbyv3WEk-20" value="" style="endArrow=none;html=1;rounded=0;entryX=0.5;entryY=1;entryDx=0;entryDy=0;" edge="1" parent="1" source="lq_0w_lqpPaoq404DFsg-5" target="m8zrVRxtoHdMWbyv3WEk-18">
          <mxGeometry width="50" height="50" relative="1" as="geometry">
            <mxPoint x="100" y="450" as="sourcePoint" />
            <mxPoint x="150" y="400" as="targetPoint" />
          </mxGeometry>
        </mxCell>
        <mxCell id="m8zrVRxtoHdMWbyv3WEk-21" value="Unseen Message" style="rounded=0;whiteSpace=wrap;html=1;" vertex="1" parent="1">
          <mxGeometry x="50" y="590" width="120" height="60" as="geometry" />
        </mxCell>
        <mxCell id="m8zrVRxtoHdMWbyv3WEk-31" value="includes" style="rhombus;whiteSpace=wrap;html=1;" vertex="1" parent="1">
          <mxGeometry x="70" y="460" width="80" height="80" as="geometry" />
        </mxCell>
        <mxCell id="m8zrVRxtoHdMWbyv3WEk-32" value="User ID" style="ellipse;whiteSpace=wrap;html=1;" vertex="1" parent="1">
          <mxGeometry x="125" y="739" width="120" height="40" as="geometry" />
        </mxCell>
        <mxCell id="m8zrVRxtoHdMWbyv3WEk-33" value="ID" style="ellipse;whiteSpace=wrap;html=1;" vertex="1" parent="1">
          <mxGeometry x="-25" y="739" width="120" height="40" as="geometry" />
        </mxCell>
        <mxCell id="m8zrVRxtoHdMWbyv3WEk-34" value="Chat ID" style="ellipse;whiteSpace=wrap;html=1;" vertex="1" parent="1">
          <mxGeometry x="-35" y="679" width="120" height="40" as="geometry" />
        </mxCell>
        <mxCell id="m8zrVRxtoHdMWbyv3WEk-35" value="Message ID" style="ellipse;whiteSpace=wrap;html=1;" vertex="1" parent="1">
          <mxGeometry x="135" y="679" width="120" height="40" as="geometry" />
        </mxCell>
        <mxCell id="m8zrVRxtoHdMWbyv3WEk-36" value="" style="endArrow=none;html=1;rounded=0;" edge="1" parent="1" source="m8zrVRxtoHdMWbyv3WEk-34" target="m8zrVRxtoHdMWbyv3WEk-21">
          <mxGeometry width="50" height="50" relative="1" as="geometry">
            <mxPoint x="100" y="520" as="sourcePoint" />
            <mxPoint x="150" y="470" as="targetPoint" />
          </mxGeometry>
        </mxCell>
        <mxCell id="m8zrVRxtoHdMWbyv3WEk-37" value="" style="endArrow=none;html=1;rounded=0;" edge="1" parent="1" source="m8zrVRxtoHdMWbyv3WEk-21" target="m8zrVRxtoHdMWbyv3WEk-33">
          <mxGeometry width="50" height="50" relative="1" as="geometry">
            <mxPoint x="100" y="600" as="sourcePoint" />
            <mxPoint x="150" y="550" as="targetPoint" />
          </mxGeometry>
        </mxCell>
        <mxCell id="m8zrVRxtoHdMWbyv3WEk-38" value="" style="endArrow=none;html=1;rounded=0;exitX=0.75;exitY=1;exitDx=0;exitDy=0;" edge="1" parent="1" source="m8zrVRxtoHdMWbyv3WEk-21" target="m8zrVRxtoHdMWbyv3WEk-35">
          <mxGeometry width="50" height="50" relative="1" as="geometry">
            <mxPoint x="100" y="600" as="sourcePoint" />
            <mxPoint x="150" y="550" as="targetPoint" />
          </mxGeometry>
        </mxCell>
        <mxCell id="m8zrVRxtoHdMWbyv3WEk-39" value="" style="endArrow=none;html=1;rounded=0;exitX=0.549;exitY=1.023;exitDx=0;exitDy=0;exitPerimeter=0;" edge="1" parent="1" source="m8zrVRxtoHdMWbyv3WEk-21" target="m8zrVRxtoHdMWbyv3WEk-32">
          <mxGeometry width="50" height="50" relative="1" as="geometry">
            <mxPoint x="100" y="600" as="sourcePoint" />
            <mxPoint x="150" y="550" as="targetPoint" />
          </mxGeometry>
        </mxCell>
        <mxCell id="m8zrVRxtoHdMWbyv3WEk-40" value="" style="endArrow=classic;html=1;rounded=0;entryX=0.5;entryY=0;entryDx=0;entryDy=0;" edge="1" parent="1" source="m8zrVRxtoHdMWbyv3WEk-31" target="m8zrVRxtoHdMWbyv3WEk-21">
          <mxGeometry width="50" height="50" relative="1" as="geometry">
            <mxPoint x="100" y="600" as="sourcePoint" />
            <mxPoint x="150" y="550" as="targetPoint" />
          </mxGeometry>
        </mxCell>
        <mxCell id="m8zrVRxtoHdMWbyv3WEk-41" value="" style="endArrow=classic;html=1;rounded=0;entryX=0.5;entryY=1;entryDx=0;entryDy=0;" edge="1" parent="1" source="m8zrVRxtoHdMWbyv3WEk-31" target="lq_0w_lqpPaoq404DFsg-5">
          <mxGeometry width="50" height="50" relative="1" as="geometry">
            <mxPoint x="100" y="600" as="sourcePoint" />
            <mxPoint x="150" y="550" as="targetPoint" />
          </mxGeometry>
        </mxCell>
      </root>
    </mxGraphModel>
  </diagram>
</mxfile>
